<?xml version="1.0" standalone="no"?>
<!DOCTYPE svg PUBLIC "-//W3C//DTD SVG 20010904//EN"
 "http://www.w3.org/TR/2001/REC-SVG-20010904/DTD/svg10.dtd">
<svg version="1.0" xmlns="http://www.w3.org/2000/svg"
 width="1094.000000pt" height="1083.000000pt" viewBox="0 0 1094.000000 1083.000000"
 preserveAspectRatio="xMidYMid meet">
<metadata>
Created by potrace 1.16, written by Peter Selinger 2001-2019
</metadata>
<g transform="translate(0.000000,1083.000000) scale(0.100000,-0.100000)"
fill="#000000" stroke="none">
<path d="M0 5415 l0 -5415 5470 0 5470 0 0 909 0 908 -52 16 c-29 8 -78 25
-108 38 -30 12 -67 23 -82 24 -16 1 -34 3 -42 4 -7 0 -30 16 -50 34 -26 24
-36 42 -36 63 0 29 -10 39 -70 72 -14 8 -36 15 -50 17 -41 5 -183 35 -188 40
-3 2 -17 -2 -31 -10 -81 -45 -57 -44 -476 -15 -19 1 -19 2 -1 9 17 7 17 8 -5
22 -13 9 -45 21 -71 27 -58 15 -254 16 -263 2 -9 -15 -72 -12 -78 3 -8 20
-330 31 -366 13 -14 -8 -63 -17 -109 -21 -58 -5 -85 -12 -89 -21 -4 -10 -9
-11 -17 -5 -8 7 -20 2 -39 -15 -18 -17 -46 -28 -84 -34 -31 -5 -61 -14 -67
-20 -5 -5 -20 -10 -32 -10 -12 0 -33 -9 -47 -20 -14 -11 -29 -20 -33 -20 -4 0
-20 -12 -36 -27 -22 -21 -30 -24 -42 -14 -8 7 -30 11 -48 9 -25 -2 -33 -8 -33
-23 0 -16 -8 -21 -38 -23 -26 -2 -39 1 -43 12 -4 10 -29 17 -82 22 -66 6 -80
11 -105 35 -28 29 -57 38 -57 19 0 -5 -22 6 -49 25 -26 19 -54 35 -60 35 -7 0
-23 11 -36 25 -14 13 -25 22 -25 18 0 -3 -15 6 -34 21 -19 14 -39 26 -45 26
-14 0 -14 17 -1 25 19 12 10 21 -40 44 -27 12 -50 29 -50 36 0 8 -10 20 -22
26 -30 16 -68 51 -68 64 0 15 -56 62 -96 81 -19 9 -34 22 -34 29 0 7 -8 16
-17 19 -28 10 -64 33 -64 40 3 27 -2 36 -24 42 -14 3 -25 10 -25 15 0 5 -7 9
-15 9 -8 0 -15 5 -15 10 0 6 -12 22 -27 35 -19 17 -23 25 -13 25 12 0 12 3 -2
11 -10 5 -19 8 -21 7 -1 -2 -13 7 -27 20 -13 12 -34 22 -47 22 -19 0 -23 5
-23 28 0 23 -8 33 -34 47 -19 11 -37 27 -40 38 -5 19 -6 18 -36 -3 -17 -12
-37 -34 -43 -48 -17 -37 -41 -65 -134 -157 -74 -72 -83 -84 -83 -118 0 -28 -6
-40 -25 -53 -31 -21 -41 -51 -22 -72 39 -44 24 -82 -36 -96 -16 -4 -40 -19
-54 -34 -14 -15 -31 -26 -39 -24 -8 2 -14 -4 -14 -13 0 -8 -5 -15 -11 -15 -6
0 -31 -18 -57 -40 -25 -22 -56 -43 -69 -46 -13 -4 -23 -12 -23 -20 0 -7 -13
-20 -30 -29 -34 -18 -50 -19 -50 -5 0 12 6 20 78 98 28 31 52 61 52 67 0 5 28
39 61 75 55 59 129 160 129 176 0 3 18 28 40 54 22 26 40 53 40 59 0 6 4 11 9
11 5 0 12 19 16 43 4 23 18 57 32 75 14 18 22 39 19 47 -3 8 4 21 15 29 12 8
27 38 36 72 15 58 35 103 61 136 8 9 11 25 8 36 -4 11 3 49 15 84 12 34 21 68
21 73 -14 145 -16 204 -11 388 1 43 -3 63 -16 77 -10 11 -21 17 -25 15 -4 -3
-10 2 -14 10 -3 8 -1 17 3 20 5 3 8 71 6 153 -2 128 -5 153 -24 190 -19 37
-20 48 -10 85 6 23 8 66 5 97 -3 30 -2 70 4 89 8 28 6 36 -7 46 -11 8 -14 20
-10 35 3 13 -1 39 -9 58 -7 19 -14 53 -14 76 0 31 -7 47 -25 65 -27 25 -33 69
-13 89 10 10 10 17 1 31 -14 22 -6 62 14 74 7 4 13 23 13 42 0 42 15 84 41
111 15 16 19 34 19 75 -2 98 11 261 21 280 5 11 7 35 3 54 -6 31 -8 175 -3
230 1 11 -3 49 -10 85 -6 36 -11 165 -11 288 0 248 -2 270 -70 637 -5 28 -12
73 -16 100 -3 28 -12 59 -19 70 -6 11 -14 38 -17 60 -8 59 -47 136 -80 154
-31 18 -34 34 -13 74 8 15 11 35 8 44 -4 9 -2 14 3 10 5 -3 8 11 6 33 -3 28 1
41 15 51 21 16 37 40 58 87 21 44 55 44 88 0 62 -84 115 -223 138 -361 5 -33
12 -64 16 -70 3 -6 14 -74 24 -151 9 -78 26 -197 38 -266 12 -76 24 -221 30
-370 7 -164 17 -279 31 -349 11 -57 21 -105 23 -107 1 -2 12 -1 24 2 17 5 22
16 28 61 9 75 -3 220 -22 265 -15 35 -14 39 5 79 16 31 18 47 11 66 -15 41
-10 77 16 107 30 35 39 66 32 104 -4 20 1 34 20 53 22 24 24 30 14 65 -9 33
-8 41 9 59 15 16 20 35 20 72 0 83 50 110 106 58 16 -15 37 -25 48 -23 27 4
33 58 15 143 -6 33 -13 101 -14 150 -1 71 -7 104 -28 156 -15 36 -27 84 -27
108 0 41 -32 186 -50 226 -15 34 -50 156 -50 175 0 20 -87 197 -107 218 -18
19 -26 77 -19 130 9 61 9 70 1 115 -6 30 -5 37 9 37 9 0 16 -4 16 -10 0 -5 4
-10 8 -10 11 0 1 144 -11 151 -6 5 -7 40 -1 105 12 140 9 205 -10 216 -9 5
-16 19 -16 32 0 12 -8 31 -18 42 -9 10 -25 32 -36 48 -13 20 -20 25 -26 16 -5
-7 -10 1 -14 23 -3 19 -15 44 -25 56 -11 12 -17 30 -14 41 3 12 0 20 -7 20 -8
0 -11 15 -9 48 6 94 -11 173 -56 257 -23 44 -48 98 -55 119 -7 22 -26 60 -41
85 -16 25 -29 53 -29 62 0 30 -76 111 -124 132 -32 14 -46 25 -46 39 0 11 -5
28 -11 40 -6 11 -8 31 -5 44 5 20 11 24 29 18 12 -3 29 -13 38 -20 25 -22 46
-16 58 17 6 17 8 35 5 40 -2 5 3 23 12 40 9 19 12 34 6 38 -5 3 -12 16 -16 29
-9 27 -26 29 -26 3 0 -11 -12 -29 -26 -40 -29 -23 -55 -16 -74 19 -21 40 -58
68 -82 63 -14 -3 -34 4 -51 17 -31 24 -28 40 8 40 25 0 34 15 27 43 -3 13 -15
17 -46 17 -22 1 -68 7 -101 15 -33 8 -76 15 -95 15 -56 0 -109 19 -126 45 -14
22 -14 27 1 58 14 29 14 39 4 55 -21 34 -85 51 -159 43 -36 -4 -75 -5 -88 -3
l-22 4 23 22 c14 11 33 26 43 32 27 16 45 74 28 91 -7 7 -17 13 -22 13 -5 0
-15 14 -22 30 -7 17 -18 30 -24 30 -7 0 -22 11 -33 24 -11 13 -27 26 -34 28
-8 3 -9 9 -4 17 15 26 115 7 178 -33 49 -32 59 -35 77 -24 23 15 25 28 8 47
-10 11 -10 14 0 18 6 3 12 8 12 13 0 11 -59 70 -71 70 -5 0 -9 5 -9 10 0 6
-12 22 -27 35 -24 21 -26 26 -13 34 13 9 12 14 -8 33 -19 20 -24 21 -32 8 -8
-13 -13 -12 -32 8 -18 18 -20 24 -9 31 11 7 9 13 -8 30 -15 15 -33 21 -66 21
-43 0 -45 1 -45 30 0 28 -2 30 -39 30 -23 0 -41 5 -43 13 -4 9 -360 13 -1728
15 l-1723 2 6 -42 c2 -24 3 -37 0 -30 -7 19 -23 14 -23 -7 0 -10 -7 -24 -15
-31 -10 -8 -15 -30 -15 -61 0 -27 -4 -49 -10 -49 -5 0 -10 -7 -10 -15 0 -8 -6
-15 -13 -15 -27 0 -47 -36 -47 -83 0 -46 -1 -47 -30 -47 -29 0 -30 -1 -30 -49
0 -50 -9 -64 -54 -86 -17 -8 -22 -21 -24 -65 -3 -54 -22 -90 -47 -90 -7 0 -18
-7 -25 -15 -10 -12 -10 -15 4 -15 24 0 20 -15 -15 -49 -26 -26 -38 -31 -79
-31 -27 0 -50 5 -52 11 -3 8 -10 8 -26 -2 -16 -10 -22 -23 -22 -51 0 -27 -4
-38 -15 -38 -8 0 -15 -4 -15 -10 0 -5 -16 -24 -35 -43 -41 -39 -42 -47 -15
-72 27 -24 25 -35 -5 -35 -22 0 -25 -4 -25 -39 0 -29 5 -40 17 -43 15 -3 15
-4 0 -17 -15 -12 -17 -11 -17 3 0 9 -7 16 -15 16 -11 0 -15 -11 -15 -41 0 -36
-2 -40 -22 -37 -15 2 -24 11 -26 26 -4 29 -16 28 -40 -3 -11 -14 -25 -25 -31
-25 -6 0 -11 -7 -11 -15 0 -11 -11 -15 -36 -15 -29 0 -35 3 -30 16 3 8 2 12
-4 9 -6 -3 -10 -1 -10 5 0 6 -4 9 -9 6 -4 -3 -19 6 -31 19 -13 14 -27 25 -32
25 -13 0 -9 -50 5 -56 15 -5 11 -74 -4 -74 -5 0 -9 4 -9 10 0 5 -15 24 -34 42
-18 18 -36 43 -40 55 -4 12 -19 26 -34 31 -15 5 -39 24 -52 41 -26 32 -57 40
-78 19 -9 -9 -17 -7 -34 9 -20 18 -25 19 -36 7 -11 -12 -17 -10 -43 15 -16 16
-29 37 -29 45 0 12 -11 16 -50 16 -49 0 -50 1 -50 30 0 28 -2 30 -39 30 -28 0
-41 5 -45 17 -6 14 -9 15 -16 4 -6 -11 -11 -9 -21 8 -8 11 -19 21 -26 21 -7 0
-13 11 -13 25 0 14 -4 25 -10 25 -5 0 -10 7 -10 15 0 8 -7 15 -15 15 -11 0
-15 11 -15 38 0 28 -4 39 -15 39 -8 0 -15 -7 -15 -14 0 -11 -6 -10 -25 4 -18
14 -24 27 -25 56 0 26 -4 37 -15 37 -11 0 -15 -11 -15 -40 0 -62 -16 -47 -24
21 -10 96 -9 99 19 99 23 0 25 4 25 40 0 22 -4 40 -10 40 -5 0 -10 5 -10 11 0
6 -11 20 -25 31 -21 16 -25 28 -25 69 0 39 -6 58 -30 91 -27 37 -30 48 -30
120 0 45 -4 78 -10 78 -5 0 -10 14 -10 30 l0 30 -195 0 -195 0 0 -5415z m4530
2931 c6 -8 27 -20 46 -26 19 -6 34 -16 34 -21 0 -5 11 -7 25 -3 16 4 39 -1 65
-15 22 -12 49 -21 59 -21 24 0 71 -37 71 -56 0 -8 -12 -20 -27 -27 -16 -6 -37
-20 -47 -29 -11 -10 -30 -18 -43 -18 -19 0 -23 -5 -23 -30 0 -29 2 -30 36 -28
19 1 38 6 40 10 3 4 21 8 39 8 42 0 79 -28 64 -46 -7 -9 -7 -20 2 -35 l12 -23
23 30 c13 16 24 23 24 16 0 -10 5 -10 20 -2 24 13 60 -3 60 -25 0 -22 16 -18
38 10 20 25 42 33 42 16 0 -10 54 -31 82 -31 10 0 32 -9 47 -21 28 -21 29 -22
12 -51 -15 -27 -15 -30 2 -42 9 -7 17 -16 17 -20 0 -3 9 -15 21 -27 25 -25 22
-46 -12 -66 -23 -14 -31 -14 -58 -3 -38 15 -41 44 -6 72 14 11 25 23 25 27 0
4 -11 13 -25 19 -14 6 -25 18 -25 27 0 18 -40 21 -40 3 0 -7 -9 -24 -20 -38
-22 -28 -26 -60 -9 -60 8 0 9 -11 4 -32 -4 -18 -7 -59 -6 -91 l2 -59 -29 7
c-17 3 -32 2 -35 -2 -9 -15 44 -153 56 -146 6 4 8 0 4 -11 -4 -10 -7 -21 -7
-26 0 -5 -25 -20 -55 -34 -46 -21 -55 -29 -55 -50 0 -21 -5 -26 -24 -26 -24 0
-49 21 -44 36 1 5 -6 24 -15 42 -14 25 -24 32 -47 32 -24 0 -31 5 -36 26 -6
22 -11 25 -34 20 -22 -4 -34 1 -59 29 -17 19 -31 39 -31 45 0 6 -28 10 -67 10
-91 0 -173 -11 -173 -22 0 -5 4 -7 9 -3 5 3 12 1 15 -4 3 -5 -1 -11 -9 -15 -8
-3 -15 -11 -15 -18 0 -7 -14 -23 -32 -35 l-31 -22 24 -10 c13 -5 42 -15 63
-23 22 -7 41 -18 43 -23 5 -15 -56 -48 -87 -47 -20 0 -31 -6 -39 -24 -12 -28
-26 -31 -39 -8 -11 19 -47 15 -47 -6 0 -21 -36 -49 -55 -42 -8 3 -24 14 -34
24 -21 19 -76 24 -92 9 -9 -10 -34 -11 -208 -12 -55 0 -103 -2 -107 -5 -5 -3
-17 1 -27 7 -16 10 -23 8 -41 -10 -22 -22 -51 -28 -51 -11 0 6 7 10 15 10 14
0 13 3 -2 25 -22 30 -30 31 -51 5 -10 -12 -36 -24 -62 -28 -33 -5 -48 -13 -55
-30 -8 -19 -16 -22 -37 -18 -32 6 -60 -2 -52 -15 3 -5 -7 -4 -21 1 -15 6 -42
10 -61 10 -19 0 -34 5 -34 11 0 8 17 10 55 5 43 -5 55 -3 55 8 0 7 -7 19 -15
26 -13 11 -13 14 2 27 16 13 15 13 -12 9 -23 -4 -37 0 -59 20 l-29 25 19 35
c21 39 37 43 58 13 17 -25 86 -36 86 -13 0 10 -12 14 -40 14 -39 0 -45 6 -41
38 1 6 -8 12 -21 12 -23 1 -23 1 4 23 68 55 87 67 101 61 10 -3 20 3 26 15 16
29 50 46 64 32 19 -19 35 -12 80 34 25 25 48 45 53 45 5 0 18 12 29 27 l22 26
20 -20 c20 -20 21 -20 37 -2 17 20 22 75 8 81 -5 2 -12 26 -15 54 -5 48 -4 54
24 80 28 27 31 28 43 12 16 -22 74 -24 82 -3 4 8 17 15 30 15 14 0 27 7 30 15
4 8 12 15 18 15 7 0 22 11 35 23 18 20 19 26 8 36 -16 12 -11 62 7 73 6 4 9
21 8 38 -3 22 1 30 12 30 9 0 16 -4 16 -8 0 -4 15 -12 33 -17 39 -12 110 17
100 41 -3 8 -1 14 5 14 6 0 14 -15 18 -32 3 -18 14 -38 23 -45 15 -11 14 -12
-1 -13 -10 0 -18 -7 -18 -15 0 -8 -4 -15 -9 -15 -5 0 -13 -10 -17 -22 -4 -13
-14 -28 -22 -34 -14 -10 -12 -13 8 -24 20 -11 25 -10 35 4 7 9 19 16 28 16 9
0 19 5 22 11 4 5 32 21 62 34 37 17 52 29 47 37 -15 27 -47 57 -56 52 -14 -9
-48 7 -48 23 0 9 6 13 13 10 8 -3 20 -1 28 4 11 7 9 13 -11 29 l-25 19 34 31
c31 29 36 30 63 19 22 -9 32 -9 41 0 11 11 9 12 -13 15 -19 2 -11 21 12 28 34
9 35 9 48 -6z m184 -1654 c2 -4 19 -9 38 -10 41 -3 72 -33 73 -69 0 -20 8 -31
28 -41 37 -18 34 -32 -13 -72 -28 -24 -40 -41 -40 -60 0 -15 -10 -35 -24 -47
-13 -12 -29 -29 -34 -39 -10 -18 -12 -17 -34 9 -14 16 -30 25 -39 22 -8 -3
-24 3 -36 14 -15 14 -23 17 -26 8 -3 -7 -8 2 -12 18 -4 17 -14 40 -21 52 -10
16 -11 34 -5 67 8 42 32 81 44 70 3 -3 10 10 16 29 14 41 70 73 85 49z m-701
-969 c-18 -6 1 -40 26 -48 20 -6 38 -56 27 -74 -9 -14 -45 -1 -51 20 -6 17 -7
17 -26 -2 -22 -22 -28 -23 -65 -9 -22 9 -29 7 -45 -11 -20 -24 -24 -39 -10
-39 5 0 12 -11 15 -25 4 -14 13 -25 22 -25 24 0 64 -47 65 -77 2 -26 2 -25 9
7 l7 35 2 -37 c1 -28 -3 -38 -14 -38 -16 0 -16 -1 -20 -36 -1 -12 -5 -26 -9
-32 -3 -6 -1 -12 5 -14 9 -3 9 -9 0 -26 -15 -28 -25 -28 -45 3 -24 36 -71 35
-81 -2 -5 -21 -8 -24 -16 -12 -6 9 -9 -4 -9 -43 l0 -56 37 18 c21 10 42 15 48
12 5 -4 19 -7 30 -7 13 0 21 -8 23 -22 2 -13 -1 -23 -7 -23 -6 0 -11 -6 -11
-13 0 -8 -9 -22 -20 -32 -11 -10 -20 -26 -20 -36 0 -17 -54 -44 -70 -34 -12 7
-40 -19 -44 -42 -3 -12 -14 -31 -25 -42 -12 -12 -21 -26 -21 -32 0 -6 -16 -10
-37 -9 -101 5 -103 4 -103 -40 0 -38 2 -40 30 -40 27 0 30 3 31 33 1 17 3 24
6 14 4 -15 7 -16 20 -5 12 10 18 9 29 -7 22 -29 17 -46 -16 -58 -18 -7 -33
-21 -36 -34 -4 -13 -14 -23 -24 -23 -15 0 -19 -13 -25 -76 -5 -55 -13 -83 -26
-97 -19 -21 -19 -21 -13 26 4 30 2 52 -5 61 -9 10 -8 16 4 26 22 18 19 39 -5
33 -11 -3 -27 1 -36 8 -24 20 -41 19 -60 -2 -9 -10 -23 -19 -31 -19 -7 0 -13
-9 -13 -20 0 -11 -4 -20 -10 -20 -5 0 -7 6 -4 13 2 7 -7 19 -21 27 -14 7 -25
17 -25 21 0 4 -13 10 -29 14 -42 9 -54 28 -47 72 7 45 -3 65 -35 67 -40 2 -34
26 7 26 l37 0 -7 54 c-5 43 -3 58 10 70 8 9 20 16 25 16 5 0 9 5 9 10 0 6 -20
10 -45 10 l-45 0 -2 -37 c-1 -38 -1 -38 -7 7 -3 25 -2 48 2 51 15 11 -25 41
-49 36 -14 -2 -25 2 -28 9 -4 11 14 14 89 14 82 0 95 -2 95 -17 0 -15 1 -15
18 0 10 10 23 17 29 17 6 0 13 24 15 52 5 44 2 58 -16 80 -11 14 -28 29 -36
31 -10 3 -8 5 6 6 11 0 28 7 38 14 16 12 15 14 -8 36 -19 18 -26 35 -26 63 l0
38 -53 0 c-48 0 -55 3 -65 25 -12 26 -20 30 -37 17 -14 -10 -18 -42 -5 -42 5
0 10 -18 10 -39 0 -32 4 -40 20 -43 15 -2 17 -7 10 -18 -9 -13 -12 -13 -21 3
-12 21 -49 23 -49 2 0 -8 -4 -15 -10 -15 -15 0 -30 36 -30 74 0 25 -4 36 -15
36 -9 0 -15 9 -15 23 0 26 -39 66 -85 87 -31 14 -38 17 -65 19 -13 1 -13 2 0
11 21 13 7 22 -43 27 -53 6 -87 -9 -80 -36 3 -10 0 -22 -6 -25 -19 -12 -12
-26 13 -26 13 0 26 6 29 13 2 6 7 9 11 6 10 -10 -4 -39 -25 -50 -13 -7 -25 -7
-37 0 -9 6 -13 11 -8 11 13 0 -30 40 -44 40 -5 0 -10 13 -10 29 0 15 -10 41
-21 56 -18 22 -20 29 -8 36 8 5 22 9 32 9 9 0 17 3 17 8 0 4 10 13 22 21 18
11 22 11 30 -3 7 -12 26 -16 81 -17 54 0 68 -3 56 -11 -13 -9 -11 -14 14 -40
19 -18 32 -25 37 -19 4 8 21 8 52 3 33 -7 52 -5 72 5 15 8 35 11 45 8 10 -3
30 -1 45 5 19 7 33 7 48 -1 28 -15 68 -3 68 21 0 32 22 35 42 7 11 -15 28 -27
38 -27 10 0 20 -7 24 -15 3 -8 1 -15 -5 -15 -6 0 -7 -5 -3 -11 3 -6 17 -9 30
-6 14 2 27 0 30 -4 3 -5 24 -9 47 -9 31 0 49 7 70 26 26 24 56 33 132 38 60 5
111 26 132 55 14 19 35 31 60 36 21 4 32 10 25 12 -6 3 -9 9 -6 14 3 5 22 -7
42 -27 24 -23 32 -38 25 -41z m729 -200 c14 -13 21 -14 30 -5 7 7 29 12 49 12
28 0 43 -6 57 -25 11 -14 30 -25 42 -25 20 0 22 -4 16 -31 -3 -17 -6 -42 -6
-55 0 -34 -36 -51 -61 -28 -18 17 -19 16 -19 -29 l0 -45 -67 -4 c-76 -4 -112
9 -132 44 -11 22 -11 31 4 62 10 20 21 36 26 36 5 0 14 11 21 25 8 19 8 28 -2
40 -14 17 -7 45 11 45 7 0 21 -8 31 -17z m-2650 -564 c21 -12 22 -26 3 -59
-21 -37 -18 -55 15 -88 l29 -30 -25 -6 c-14 -4 -36 -18 -48 -31 -97 -104 -180
70 -92 193 28 41 33 43 66 37 19 -4 43 -11 52 -16z m4491 -3216 c33 -94 97
-384 97 -442 0 -16 5 -42 11 -58 6 -15 14 -46 19 -68 5 -22 16 -60 25 -84 12
-33 14 -61 9 -111 -8 -83 -14 -95 -48 -86 -42 10 -64 43 -64 92 0 30 -9 59
-26 88 -15 26 -26 60 -26 81 0 20 -6 48 -14 63 -10 20 -15 72 -16 187 -3 258
-1 385 8 385 4 0 16 -21 25 -47z"/>
<path d="M4939 7923 c0 -21 -3 -32 -6 -25 -3 7 -24 12 -53 12 -53 0 -60 -8
-60 -66 0 -27 -5 -35 -24 -40 -13 -3 -33 -1 -44 5 -27 14 -32 14 -32 -2 0 -7
-17 -30 -38 -52 -21 -22 -46 -54 -54 -72 -14 -28 -14 -32 -1 -37 22 -9 30 -7
47 10 15 14 16 14 17 -3 0 -10 7 0 16 22 10 22 30 54 45 70 l29 30 24 -27 c35
-41 45 -35 45 27 0 55 0 55 31 55 21 0 43 10 66 30 18 17 38 30 43 30 6 0 10
16 10 35 0 32 -2 35 -30 35 -28 0 -30 -3 -31 -37z"/>
<path d="M9295 10808 c11 -35 35 -69 45 -63 4 3 21 0 36 -5 29 -11 90 2 96 21
2 5 37 10 78 10 76 0 110 14 110 46 0 10 -37 13 -186 13 l-185 0 6 -22z"/>
<path d="M7285 5667 c-95 -42 -100 -48 -98 -127 2 -60 0 -72 -17 -83 -26 -16
-26 -67 0 -97 17 -19 19 -33 14 -104 -6 -96 -22 -188 -41 -235 -19 -46 -58
-585 -45 -626 9 -30 9 -103 -2 -308 -5 -98 -4 -109 14 -127 27 -27 61 -25 120
5 60 31 73 62 42 104 -25 34 -28 49 -18 79 6 18 15 22 46 22 37 0 41 3 75 63
20 34 40 69 45 77 26 45 73 161 80 200 8 44 71 222 124 349 14 36 26 79 26 96
0 18 4 54 9 81 6 29 6 129 2 244 l-8 195 -37 55 c-102 154 -100 153 -199 156
-67 2 -91 -1 -132 -19z"/>
</g>
</svg>
